%TF.GenerationSoftware,KiCad,Pcbnew,10.0.5*%
%TF.CreationDate,2026-08-27T22:15:09+05:30*%
%TF.ProjectId,Queaky_STEM_Toy,51756561-6b79-45f5-9354-454d5f546f79,rev?*%
%TF.SameCoordinates,Original*%
%TF.FileFunction,Copper,L1,Top*%
%TF.FilePolarity,Positive*%
%FSLAX46Y46*%
G04 Gerber Fmt 4.6, Leading zero omitted, Abs format (unit mm)*
G04 Created by KiCad (PCBNEW 10.0.5) date 2026-08-27 22:15:09*
%MOMM*%
%LPD*%
G01*
G04 APERTURE LIST*
G04 Aperture macros list*
%AMRoundRect*
0 Rectangle with rounded corners*
0 $1 Rounding radius*
0 $2 $3 $4 $5 $6 $7 $8 $9 X,Y pos of 4 corners*
0 Add a 4 corners polygon primitive as box body*
4,1,4,$2,$3,$4,$5,$6,$7,$8,$9,$2,$3,0*
0 Add four circle primitives for the rounded corners*
1,1,$1+$1,$2,$3*
1,1,$1+$1,$4,$5*
1,1,$1+$1,$6,$7*
1,1,$1+$1,$8,$9*
0 Add four rect primitives between the rounded corners*
20,1,$1+$1,$2,$3,$4,$5,0*
20,1,$1+$1,$4,$5,$6,$7,0*
20,1,$1+$1,$6,$7,$8,$9,0*
20,1,$1+$1,$8,$9,$2,$3,0*%
G04 Aperture macros list end*
%TA.AperFunction,ComponentPad*%
%ADD10RoundRect,0.250000X-0.550000X-0.550000X0.550000X-0.550000X0.550000X0.550000X-0.550000X0.550000X0*%
%TD*%
%TA.AperFunction,ComponentPad*%
%ADD11C,1.600000*%
%TD*%
%TA.AperFunction,ComponentPad*%
%ADD12C,2.000000*%
%TD*%
%TA.AperFunction,ComponentPad*%
%ADD13C,1.700000*%
%TD*%
%TA.AperFunction,ComponentPad*%
%ADD14R,1.700000X1.700000*%
%TD*%
%TA.AperFunction,ViaPad*%
%ADD15C,0.600000*%
%TD*%
%TA.AperFunction,Conductor*%
%ADD16C,0.300000*%
%TD*%
%TA.AperFunction,Conductor*%
%ADD17C,0.500000*%
%TD*%
G04 APERTURE END LIST*
D10*
%TO.P,100uF,1*%
%TO.N,/Out*%
X117846025Y-94942329D03*
D11*
%TO.P,100uF,2*%
%TO.N,/<NO NET>*%
X121346025Y-94942329D03*
%TD*%
%TO.P,1K,2*%
%TO.N,/DIS*%
X134696025Y-73942329D03*
%TO.P,1K,1*%
%TO.N,VCC*%
X121996025Y-73942329D03*
%TD*%
D12*
%TO.P,1nF,2*%
%TO.N,GND*%
X122846025Y-78442329D03*
%TO.P,1nF,1*%
%TO.N,/TR*%
X122846025Y-88442329D03*
%TD*%
D13*
%TO.P,Out,2,2_2*%
%TO.N,/TR*%
X131616025Y-95942329D03*
D14*
%TO.P,Out,1,1_1*%
%TO.N,/<NO NET>*%
X129076025Y-95942329D03*
%TD*%
D11*
%TO.P,IC 555,8,VCC_8*%
%TO.N,VCC*%
X136156025Y-80132329D03*
%TO.P,IC 555,7,DISCH_7*%
%TO.N,/DIS*%
X136156025Y-82672329D03*
%TO.P,IC 555,6,THRES_6*%
%TO.N,/TR*%
X136156025Y-85212329D03*
%TO.P,IC 555,5,CONT_5*%
%TO.N,unconnected-(U1-CONT-Pad5)*%
X136156025Y-87752329D03*
%TO.P,IC 555,4,~{RST}_4*%
%TO.N,VCC*%
X128536025Y-87752329D03*
%TO.P,IC 555,3,OUT_3*%
%TO.N,/Out*%
X128536025Y-85212329D03*
%TO.P,IC 555,2,TRIG_2*%
%TO.N,/TR*%
X128536025Y-82672329D03*
D10*
%TO.P,IC 555,1,GND_1*%
%TO.N,GND*%
X128536025Y-80132329D03*
%TD*%
D13*
%TO.P,Buzz,2,2_2*%
%TO.N,GND*%
X137806025Y-95942329D03*
D14*
%TO.P,Buzz,1,1_1*%
%TO.N,/<NO NET>*%
X140346025Y-95942329D03*
%TD*%
%TO.P,+ Bat -,1,1_1*%
%TO.N,VCC*%
X117346025Y-84712329D03*
D13*
%TO.P,+ Bat -,2,2_2*%
%TO.N,GND*%
X117346025Y-82172329D03*
%TD*%
D11*
%TO.P,10K,2*%
%TO.N,/<NO NET>*%
X140696025Y-87792329D03*
%TO.P,10K,1*%
%TO.N,/DIS*%
X140696025Y-75092329D03*
%TD*%
D15*
%TO.N,GND*%
X130846025Y-83942329D03*
%TD*%
%TO.N,/<NO NET>*%
D16*
X128846025Y-95942329D02*
X127846025Y-94942329D01*
%TO.N,/TR*%
X128536025Y-82672329D02*
X128536025Y-82752329D01*
%TO.N,/DIS*%
X139546025Y-73942329D02*
X140696025Y-75092329D01*
%TO.N,/TR*%
X131616025Y-95942329D02*
X131616025Y-89752329D01*
%TO.N,/DIS*%
X140696025Y-78132329D02*
X136156025Y-82672329D01*
X140696025Y-75092329D02*
X140696025Y-78132329D01*
%TO.N,GND*%
D17*
X117346025Y-82172329D02*
X121076025Y-78442329D01*
%TO.N,/DIS*%
D16*
X134696025Y-73942329D02*
X139546025Y-73942329D01*
%TO.N,GND*%
D17*
X121076025Y-78442329D02*
X122846025Y-78442329D01*
%TO.N,/TR*%
D16*
X131616025Y-89752329D02*
X136156025Y-85212329D01*
%TO.N,/<NO NET>*%
X127846025Y-94942329D02*
X121346025Y-94942329D01*
%TO.N,/TR*%
X128536025Y-82752329D02*
X122846025Y-88442329D01*
%TO.N,/<NO NET>*%
X129076025Y-95942329D02*
X128846025Y-95942329D01*
X140696025Y-95592329D02*
X140346025Y-95942329D01*
X140696025Y-87792329D02*
X140696025Y-95592329D01*
X140346025Y-95942329D02*
X137846025Y-98442329D01*
X129076025Y-97172329D02*
X129076025Y-95942329D01*
X137846025Y-98442329D02*
X130346025Y-98442329D01*
X130346025Y-98442329D02*
X129076025Y-97172329D01*
%TO.N,VCC*%
D17*
X128536025Y-87752329D02*
X136156025Y-80132329D01*
X121996025Y-73942329D02*
X115346025Y-80592329D01*
X115346025Y-80592329D02*
X115346025Y-83442329D01*
X115346025Y-83442329D02*
X116616025Y-84712329D01*
X116616025Y-84712329D02*
X117346025Y-84712329D01*
X117346025Y-84712329D02*
X117346025Y-86942329D01*
X121346025Y-90942329D02*
X125346025Y-90942329D01*
X125346025Y-90942329D02*
X128536025Y-87752329D01*
X117346025Y-86942329D02*
X121346025Y-90942329D01*
%TO.N,GND*%
X128536025Y-80132329D02*
X124536025Y-80132329D01*
X124536025Y-80132329D02*
X122846025Y-78442329D01*
X130846025Y-83942329D02*
X130846025Y-82442329D01*
X130846025Y-82442329D02*
X128536025Y-80132329D01*
%TD*%
%TA.AperFunction,Conductor*%
%TO.N,GND*%
G36*
X142942539Y-71270185D02*
G01*
X142988294Y-71322989D01*
X142999500Y-71374500D01*
X142999500Y-100125500D01*
X142979815Y-100192539D01*
X142927011Y-100238294D01*
X142875500Y-100249500D01*
X114124500Y-100249500D01*
X114057461Y-100229815D01*
X114011706Y-100177011D01*
X114000500Y-100125500D01*
X114000500Y-94342312D01*
X116545525Y-94342312D01*
X116545525Y-95542330D01*
X116545526Y-95542347D01*
X116556025Y-95645125D01*
X116556026Y-95645128D01*
X116576017Y-95705456D01*
X116611211Y-95811663D01*
X116703313Y-95960985D01*
X116827369Y-96085041D01*
X116976691Y-96177143D01*
X117143228Y-96232328D01*
X117246016Y-96242829D01*
X118446033Y-96242828D01*
X118548822Y-96232328D01*
X118715359Y-96177143D01*
X118864681Y-96085041D01*
X118988737Y-95960985D01*
X119080839Y-95811663D01*
X119136024Y-95645126D01*
X119146525Y-95542338D01*
X119146524Y-94342321D01*
X119136024Y-94239532D01*
X119080839Y-94072995D01*
X118988737Y-93923673D01*
X118864681Y-93799617D01*
X118715359Y-93707515D01*
X118548822Y-93652330D01*
X118548820Y-93652329D01*
X118446035Y-93641829D01*
X117246023Y-93641829D01*
X117246006Y-93641830D01*
X117143228Y-93652329D01*
X117143225Y-93652330D01*
X116976693Y-93707514D01*
X116976688Y-93707516D01*
X116827367Y-93799618D01*
X116703314Y-93923671D01*
X116611212Y-94072992D01*
X116611211Y-94072995D01*
X116556026Y-94239532D01*
X116556026Y-94239533D01*
X116556025Y-94239533D01*
X116545525Y-94342312D01*
X114000500Y-94342312D01*
X114000500Y-83516249D01*
X114595524Y-83516249D01*
X114624365Y-83661236D01*
X114624368Y-83661246D01*
X114680938Y-83797819D01*
X114680940Y-83797822D01*
X114692057Y-83814461D01*
X114692056Y-83814461D01*
X114763071Y-83920743D01*
X114763077Y-83920750D01*
X115959206Y-85116877D01*
X115992691Y-85178200D01*
X115995525Y-85204558D01*
X115995525Y-85610199D01*
X115995526Y-85610205D01*
X116001933Y-85669812D01*
X116052227Y-85804657D01*
X116052231Y-85804664D01*
X116138477Y-85919873D01*
X116138480Y-85919876D01*
X116253689Y-86006122D01*
X116253696Y-86006126D01*
X116298643Y-86022890D01*
X116388542Y-86056420D01*
X116448152Y-86062829D01*
X116471522Y-86062828D01*
X116538561Y-86082510D01*
X116584317Y-86135312D01*
X116595525Y-86186828D01*
X116595525Y-87016247D01*
X116595525Y-87016249D01*
X116595524Y-87016249D01*
X116624365Y-87161236D01*
X116624368Y-87161246D01*
X116680937Y-87297817D01*
X116680941Y-87297824D01*
X116699620Y-87325779D01*
X116699621Y-87325782D01*
X116699622Y-87325782D01*
X116763076Y-87420749D01*
X116763077Y-87420750D01*
X120867605Y-91525277D01*
X120867609Y-91525280D01*
X120990523Y-91607409D01*
X120990536Y-91607416D01*
X121127107Y-91663985D01*
X121127112Y-91663987D01*
X121127116Y-91663987D01*
X121127117Y-91663988D01*
X121272104Y-91692829D01*
X121272107Y-91692829D01*
X125419945Y-91692829D01*
X125517487Y-91673425D01*
X125564938Y-91663987D01*
X125701520Y-91607413D01*
X125750754Y-91574515D01*
X125824441Y-91525281D01*
X128270919Y-89078800D01*
X128332240Y-89045317D01*
X128377995Y-89044010D01*
X128433673Y-89052829D01*
X128433674Y-89052829D01*
X128638376Y-89052829D01*
X128638377Y-89052829D01*
X128840559Y-89020806D01*
X129035244Y-88957549D01*
X129217635Y-88864616D01*
X129328188Y-88784295D01*
X129383238Y-88744300D01*
X129383240Y-88744297D01*
X129383244Y-88744295D01*
X129527991Y-88599548D01*
X129527993Y-88599544D01*
X129527996Y-88599542D01*
X129619248Y-88473942D01*
X129648312Y-88433939D01*
X129741245Y-88251548D01*
X129804502Y-88056863D01*
X129836525Y-87854681D01*
X129836525Y-87649977D01*
X129827706Y-87594300D01*
X129836660Y-87525008D01*
X129862495Y-87487224D01*
X134645092Y-82704627D01*
X134706413Y-82671144D01*
X134776105Y-82676128D01*
X134832038Y-82718000D01*
X134855244Y-82772911D01*
X134887548Y-82976864D01*
X134950806Y-83171552D01*
X135014716Y-83296982D01*
X135037728Y-83342144D01*
X135043740Y-83353942D01*
X135164053Y-83519542D01*
X135308811Y-83664300D01*
X135463774Y-83776885D01*
X135474415Y-83784616D01*
X135565865Y-83831212D01*
X135567105Y-83831844D01*
X135617901Y-83879819D01*
X135634696Y-83947640D01*
X135612159Y-84013775D01*
X135567105Y-84052814D01*
X135474411Y-84100044D01*
X135308811Y-84220357D01*
X135164053Y-84365115D01*
X135043740Y-84530715D01*
X134950806Y-84713105D01*
X134887547Y-84907794D01*
X134855525Y-85109977D01*
X134855525Y-85314680D01*
X134883679Y-85492440D01*
X134874724Y-85561734D01*
X134848887Y-85599519D01*
X131110749Y-89337657D01*
X131066167Y-89404379D01*
X131066168Y-89404380D01*
X131039559Y-89444203D01*
X130990524Y-89562584D01*
X130990522Y-89562590D01*
X130965525Y-89688257D01*
X130965525Y-94682711D01*
X130945840Y-94749750D01*
X130911433Y-94783428D01*
X130912150Y-94784414D01*
X130736240Y-94912218D01*
X130622698Y-95025760D01*
X130561375Y-95059244D01*
X130491683Y-95054260D01*
X130435750Y-95012388D01*
X130418835Y-94981411D01*
X130369822Y-94850000D01*
X130369818Y-94849993D01*
X130283572Y-94734784D01*
X130283569Y-94734781D01*
X130168360Y-94648535D01*
X130168353Y-94648531D01*
X130033507Y-94598237D01*
X130033508Y-94598237D01*
X129973908Y-94591830D01*
X129973906Y-94591829D01*
X129973898Y-94591829D01*
X129973890Y-94591829D01*
X128466833Y-94591829D01*
X128399794Y-94572144D01*
X128379156Y-94555514D01*
X128260694Y-94437052D01*
X128154152Y-94365864D01*
X128097314Y-94342321D01*
X128035769Y-94316828D01*
X128035763Y-94316826D01*
X127910096Y-94291829D01*
X127910094Y-94291829D01*
X122544096Y-94291829D01*
X122477057Y-94272144D01*
X122443779Y-94240715D01*
X122337991Y-94095110D01*
X122193244Y-93950363D01*
X122193238Y-93950357D01*
X122027638Y-93830044D01*
X122027637Y-93830043D01*
X122027635Y-93830042D01*
X121967923Y-93799617D01*
X121845248Y-93737110D01*
X121650559Y-93673851D01*
X121476020Y-93646207D01*
X121448377Y-93641829D01*
X121243673Y-93641829D01*
X121219354Y-93645680D01*
X121041490Y-93673851D01*
X120846801Y-93737110D01*
X120664411Y-93830044D01*
X120498811Y-93950357D01*
X120354053Y-94095115D01*
X120233740Y-94260715D01*
X120140806Y-94443105D01*
X120077547Y-94637794D01*
X120047571Y-94827057D01*
X120045525Y-94839977D01*
X120045525Y-95044681D01*
X120047832Y-95059244D01*
X120077547Y-95246863D01*
X120140806Y-95441552D01*
X120233740Y-95623942D01*
X120354053Y-95789542D01*
X120498811Y-95934300D01*
X120600466Y-96008155D01*
X120664415Y-96054616D01*
X120780632Y-96113832D01*
X120846801Y-96147547D01*
X120846803Y-96147547D01*
X120846806Y-96147549D01*
X120937881Y-96177141D01*
X121041490Y-96210806D01*
X121142582Y-96226817D01*
X121243673Y-96242829D01*
X121243674Y-96242829D01*
X121448376Y-96242829D01*
X121448377Y-96242829D01*
X121650559Y-96210806D01*
X121845244Y-96147549D01*
X122027635Y-96054616D01*
X122156507Y-95960986D01*
X122193238Y-95934300D01*
X122193240Y-95934297D01*
X122193244Y-95934295D01*
X122337991Y-95789548D01*
X122443778Y-95643942D01*
X122499107Y-95601278D01*
X122544096Y-95592829D01*
X127525217Y-95592829D01*
X127592256Y-95612514D01*
X127612898Y-95629148D01*
X127689206Y-95705456D01*
X127722691Y-95766779D01*
X127725525Y-95793137D01*
X127725525Y-96840199D01*
X127725526Y-96840205D01*
X127731933Y-96899812D01*
X127782227Y-97034657D01*
X127782231Y-97034664D01*
X127868477Y-97149873D01*
X127868480Y-97149876D01*
X127983689Y-97236122D01*
X127983696Y-97236126D01*
X128028367Y-97252787D01*
X128118542Y-97286420D01*
X128178152Y-97292829D01*
X128338987Y-97292828D01*
X128406026Y-97312512D01*
X128451781Y-97365316D01*
X128453548Y-97369375D01*
X128499558Y-97480453D01*
X128570751Y-97587002D01*
X128570752Y-97587003D01*
X129840749Y-98856998D01*
X129931352Y-98947601D01*
X129931357Y-98947606D01*
X130037891Y-99018790D01*
X130037897Y-99018793D01*
X130037898Y-99018794D01*
X130156281Y-99067830D01*
X130156285Y-99067830D01*
X130156286Y-99067831D01*
X130281953Y-99092829D01*
X130281956Y-99092829D01*
X137910096Y-99092829D01*
X137994640Y-99076011D01*
X138035769Y-99067830D01*
X138154152Y-99018794D01*
X138260694Y-98947606D01*
X139879152Y-97329146D01*
X139940475Y-97295662D01*
X139966833Y-97292828D01*
X141243896Y-97292828D01*
X141243897Y-97292828D01*
X141303508Y-97286420D01*
X141438356Y-97236125D01*
X141553571Y-97149875D01*
X141639821Y-97034660D01*
X141690116Y-96899812D01*
X141696525Y-96840202D01*
X141696524Y-95044457D01*
X141690116Y-94984846D01*
X141639821Y-94849998D01*
X141639820Y-94849997D01*
X141639818Y-94849993D01*
X141553572Y-94734784D01*
X141553569Y-94734781D01*
X141438360Y-94648535D01*
X141438357Y-94648534D01*
X141438356Y-94648533D01*
X141427186Y-94644367D01*
X141371256Y-94602495D01*
X141346841Y-94537030D01*
X141346525Y-94528187D01*
X141346525Y-88990399D01*
X141366210Y-88923360D01*
X141397638Y-88890082D01*
X141543244Y-88784295D01*
X141687991Y-88639548D01*
X141687993Y-88639544D01*
X141687996Y-88639542D01*
X141745480Y-88560421D01*
X141808312Y-88473939D01*
X141901245Y-88291548D01*
X141964502Y-88096863D01*
X141996525Y-87894681D01*
X141996525Y-87689977D01*
X141964502Y-87487795D01*
X141964315Y-87487221D01*
X141902777Y-87297826D01*
X141901245Y-87293110D01*
X141901243Y-87293107D01*
X141901243Y-87293105D01*
X141867528Y-87226936D01*
X141808312Y-87110719D01*
X141765477Y-87051761D01*
X141687996Y-86945115D01*
X141543238Y-86800357D01*
X141377638Y-86680044D01*
X141377637Y-86680043D01*
X141377635Y-86680042D01*
X141282290Y-86631461D01*
X141195248Y-86587110D01*
X141000559Y-86523851D01*
X140826020Y-86496207D01*
X140798377Y-86491829D01*
X140593673Y-86491829D01*
X140569354Y-86495680D01*
X140391490Y-86523851D01*
X140196801Y-86587110D01*
X140014411Y-86680044D01*
X139848811Y-86800357D01*
X139704053Y-86945115D01*
X139583740Y-87110715D01*
X139490806Y-87293105D01*
X139427547Y-87487794D01*
X139395525Y-87689977D01*
X139395525Y-87894680D01*
X139427547Y-88096863D01*
X139490806Y-88291552D01*
X139554716Y-88416982D01*
X139563358Y-88433942D01*
X139583740Y-88473942D01*
X139704053Y-88639542D01*
X139848809Y-88784298D01*
X139917888Y-88834486D01*
X139994410Y-88890082D01*
X140037076Y-88945410D01*
X140045525Y-88990399D01*
X140045525Y-94467829D01*
X140025840Y-94534868D01*
X139973036Y-94580623D01*
X139921525Y-94591829D01*
X139448154Y-94591829D01*
X139448148Y-94591830D01*
X139388541Y-94598237D01*
X139253696Y-94648531D01*
X139253689Y-94648535D01*
X139138480Y-94734781D01*
X139138477Y-94734784D01*
X139052231Y-94849993D01*
X139052227Y-94850000D01*
X139001933Y-94984846D01*
X138997535Y-95025760D01*
X138995526Y-95044452D01*
X138995525Y-95044464D01*
X138995525Y-95055019D01*
X138975840Y-95122058D01*
X138959206Y-95142700D01*
X138288987Y-95812919D01*
X138271950Y-95749336D01*
X138206124Y-95635322D01*
X138113032Y-95542230D01*
X137999018Y-95476404D01*
X137935434Y-95459366D01*
X138567741Y-94827057D01*
X138513575Y-94787704D01*
X138324242Y-94691233D01*
X138122154Y-94625571D01*
X137912271Y-94592329D01*
X137699779Y-94592329D01*
X137489897Y-94625571D01*
X137489894Y-94625571D01*
X137287807Y-94691233D01*
X137098464Y-94787709D01*
X137044307Y-94827056D01*
X137044307Y-94827057D01*
X137676616Y-95459366D01*
X137613032Y-95476404D01*
X137499018Y-95542230D01*
X137405926Y-95635322D01*
X137340100Y-95749336D01*
X137323062Y-95812920D01*
X136690753Y-95180611D01*
X136690752Y-95180611D01*
X136651405Y-95234768D01*
X136554929Y-95424111D01*
X136489267Y-95626198D01*
X136489267Y-95626201D01*
X136456025Y-95836082D01*
X136456025Y-96048575D01*
X136489267Y-96258456D01*
X136489267Y-96258459D01*
X136554929Y-96460546D01*
X136651400Y-96649879D01*
X136690753Y-96704045D01*
X137323062Y-96071737D01*
X137340100Y-96135322D01*
X137405926Y-96249336D01*
X137499018Y-96342428D01*
X137613032Y-96408254D01*
X137676615Y-96425291D01*
X137044307Y-97057598D01*
X137044307Y-97057599D01*
X137098474Y-97096953D01*
X137287807Y-97193424D01*
X137489895Y-97259086D01*
X137699779Y-97292329D01*
X137776716Y-97292329D01*
X137843755Y-97312014D01*
X137889510Y-97364818D01*
X137899454Y-97433976D01*
X137870429Y-97497532D01*
X137864397Y-97504010D01*
X137612898Y-97755510D01*
X137551575Y-97788995D01*
X137525217Y-97791829D01*
X130666832Y-97791829D01*
X130599793Y-97772144D01*
X130579151Y-97755510D01*
X130207444Y-97383802D01*
X130173959Y-97322479D01*
X130178943Y-97252787D01*
X130220812Y-97196856D01*
X130283571Y-97149875D01*
X130369821Y-97034660D01*
X130418835Y-96903245D01*
X130460706Y-96847313D01*
X130526170Y-96822895D01*
X130594443Y-96837746D01*
X130622698Y-96858898D01*
X130736238Y-96972438D01*
X130908204Y-97097377D01*
X130908206Y-97097378D01*
X130908209Y-97097380D01*
X131097613Y-97193886D01*
X131299782Y-97259575D01*
X131509738Y-97292829D01*
X131509739Y-97292829D01*
X131722311Y-97292829D01*
X131722312Y-97292829D01*
X131932268Y-97259575D01*
X132134437Y-97193886D01*
X132323841Y-97097380D01*
X132410163Y-97034664D01*
X132495811Y-96972438D01*
X132495813Y-96972435D01*
X132495817Y-96972433D01*
X132646129Y-96822121D01*
X132646131Y-96822117D01*
X132646134Y-96822115D01*
X132771073Y-96650149D01*
X132771072Y-96650149D01*
X132771076Y-96650145D01*
X132867582Y-96460741D01*
X132933271Y-96258572D01*
X132966525Y-96048616D01*
X132966525Y-95836042D01*
X132933271Y-95626086D01*
X132867582Y-95423917D01*
X132771076Y-95234513D01*
X132771074Y-95234510D01*
X132771073Y-95234508D01*
X132646134Y-95062542D01*
X132495811Y-94912219D01*
X132319900Y-94784414D01*
X132320876Y-94783069D01*
X132278859Y-94736624D01*
X132266525Y-94682711D01*
X132266525Y-90073136D01*
X132286210Y-90006097D01*
X132302839Y-89985460D01*
X134643844Y-87644454D01*
X134705167Y-87610970D01*
X134774859Y-87615954D01*
X134830792Y-87657826D01*
X134855209Y-87723290D01*
X134855525Y-87732136D01*
X134855525Y-87854680D01*
X134887547Y-88056863D01*
X134950806Y-88251552D01*
X135043740Y-88433942D01*
X135164053Y-88599542D01*
X135308811Y-88744300D01*
X135463774Y-88856885D01*
X135474415Y-88864616D01*
X135584029Y-88920467D01*
X135656801Y-88957547D01*
X135656803Y-88957547D01*
X135656806Y-88957549D01*
X135757908Y-88990399D01*
X135851490Y-89020806D01*
X135935589Y-89034126D01*
X136053673Y-89052829D01*
X136053674Y-89052829D01*
X136258376Y-89052829D01*
X136258377Y-89052829D01*
X136460559Y-89020806D01*
X136655244Y-88957549D01*
X136837635Y-88864616D01*
X136948188Y-88784295D01*
X137003238Y-88744300D01*
X137003240Y-88744297D01*
X137003244Y-88744295D01*
X137147991Y-88599548D01*
X137147993Y-88599544D01*
X137147996Y-88599542D01*
X137239248Y-88473942D01*
X137268312Y-88433939D01*
X137361245Y-88251548D01*
X137424502Y-88056863D01*
X137456525Y-87854681D01*
X137456525Y-87649977D01*
X137436732Y-87525008D01*
X137424502Y-87447794D01*
X137395152Y-87357466D01*
X137361245Y-87253110D01*
X137361243Y-87253107D01*
X137361243Y-87253105D01*
X137313286Y-87158986D01*
X137268312Y-87070719D01*
X137221054Y-87005673D01*
X137147996Y-86905115D01*
X137003238Y-86760357D01*
X136837639Y-86640044D01*
X136820794Y-86631461D01*
X136744942Y-86592812D01*
X136694148Y-86544840D01*
X136677353Y-86477019D01*
X136699890Y-86410884D01*
X136744942Y-86371845D01*
X136837635Y-86324616D01*
X136858795Y-86309242D01*
X137003238Y-86204300D01*
X137003240Y-86204297D01*
X137003244Y-86204295D01*
X137147991Y-86059548D01*
X137147993Y-86059544D01*
X137147996Y-86059542D01*
X137200757Y-85986919D01*
X137268312Y-85893939D01*
X137361245Y-85711548D01*
X137424502Y-85516863D01*
X137456525Y-85314681D01*
X137456525Y-85109977D01*
X137424502Y-84907795D01*
X137361245Y-84713110D01*
X137361243Y-84713107D01*
X137361243Y-84713105D01*
X137327528Y-84646936D01*
X137268312Y-84530719D01*
X137260581Y-84520078D01*
X137147996Y-84365115D01*
X137003238Y-84220357D01*
X136837639Y-84100044D01*
X136831031Y-84096677D01*
X136744942Y-84052812D01*
X136694148Y-84004840D01*
X136677353Y-83937019D01*
X136699890Y-83870884D01*
X136744942Y-83831845D01*
X136837635Y-83784616D01*
X136878612Y-83754845D01*
X137003238Y-83664300D01*
X137003240Y-83664297D01*
X137003244Y-83664295D01*
X137147991Y-83519548D01*
X137147993Y-83519544D01*
X137147996Y-83519542D01*
X137200757Y-83446919D01*
X137268312Y-83353939D01*
X137361245Y-83171548D01*
X137424502Y-82976863D01*
X137456525Y-82774681D01*
X137456525Y-82569977D01*
X137428370Y-82392215D01*
X137437325Y-82322922D01*
X137463159Y-82285139D01*
X141201302Y-78546998D01*
X141272491Y-78440455D01*
X141321526Y-78322072D01*
X141346525Y-78196398D01*
X141346525Y-78068260D01*
X141346525Y-76290399D01*
X141366210Y-76223360D01*
X141397638Y-76190082D01*
X141543244Y-76084295D01*
X141687991Y-75939548D01*
X141687993Y-75939544D01*
X141687996Y-75939542D01*
X141740757Y-75866919D01*
X141808312Y-75773939D01*
X141901245Y-75591548D01*
X141964502Y-75396863D01*
X141996525Y-75194681D01*
X141996525Y-74989977D01*
X141996525Y-74989976D01*
X141964502Y-74787794D01*
X141911262Y-74623939D01*
X141901245Y-74593110D01*
X141901243Y-74593107D01*
X141901243Y-74593105D01*
X141824022Y-74441552D01*
X141808312Y-74410719D01*
X141800581Y-74400078D01*
X141687996Y-74245115D01*
X141543238Y-74100357D01*
X141377638Y-73980044D01*
X141377637Y-73980043D01*
X141377635Y-73980042D01*
X141320678Y-73951020D01*
X141195248Y-73887110D01*
X141000559Y-73823851D01*
X140826020Y-73796207D01*
X140798377Y-73791829D01*
X140593673Y-73791829D01*
X140566368Y-73796153D01*
X140415913Y-73819983D01*
X140346619Y-73811028D01*
X140308834Y-73785191D01*
X139960698Y-73437055D01*
X139960694Y-73437052D01*
X139854152Y-73365864D01*
X139735769Y-73316828D01*
X139735763Y-73316826D01*
X139610096Y-73291829D01*
X139610094Y-73291829D01*
X135894096Y-73291829D01*
X135827057Y-73272144D01*
X135793779Y-73240715D01*
X135687991Y-73095110D01*
X135543244Y-72950363D01*
X135543238Y-72950357D01*
X135377638Y-72830044D01*
X135377637Y-72830043D01*
X135377635Y-72830042D01*
X135320678Y-72801020D01*
X135195248Y-72737110D01*
X135000559Y-72673851D01*
X134826020Y-72646207D01*
X134798377Y-72641829D01*
X134593673Y-72641829D01*
X134569354Y-72645680D01*
X134391490Y-72673851D01*
X134196801Y-72737110D01*
X134014411Y-72830044D01*
X133848811Y-72950357D01*
X133704053Y-73095115D01*
X133583740Y-73260715D01*
X133490806Y-73443105D01*
X133427547Y-73637794D01*
X133395525Y-73839977D01*
X133395525Y-74044680D01*
X133427547Y-74246863D01*
X133490806Y-74441552D01*
X133583740Y-74623942D01*
X133704053Y-74789542D01*
X133848811Y-74934300D01*
X134003774Y-75046885D01*
X134014415Y-75054616D01*
X134130632Y-75113832D01*
X134196801Y-75147547D01*
X134196803Y-75147547D01*
X134196806Y-75147549D01*
X134301162Y-75181456D01*
X134391490Y-75210806D01*
X134475589Y-75224126D01*
X134593673Y-75242829D01*
X134593674Y-75242829D01*
X134798376Y-75242829D01*
X134798377Y-75242829D01*
X135000559Y-75210806D01*
X135195244Y-75147549D01*
X135377635Y-75054616D01*
X135470615Y-74987061D01*
X135543238Y-74934300D01*
X135543240Y-74934297D01*
X135543244Y-74934295D01*
X135687991Y-74789548D01*
X135793778Y-74643942D01*
X135849107Y-74601278D01*
X135894096Y-74592829D01*
X139225217Y-74592829D01*
X139292256Y-74612514D01*
X139312898Y-74629148D01*
X139388887Y-74705137D01*
X139422372Y-74766460D01*
X139423679Y-74812215D01*
X139395525Y-74989976D01*
X139395525Y-75194680D01*
X139427547Y-75396863D01*
X139490806Y-75591552D01*
X139583740Y-75773942D01*
X139704053Y-75939542D01*
X139848809Y-76084298D01*
X139917888Y-76134486D01*
X139994410Y-76190082D01*
X140037076Y-76245410D01*
X140045525Y-76290399D01*
X140045525Y-77811520D01*
X140025840Y-77878559D01*
X140009206Y-77899201D01*
X137668206Y-80240201D01*
X137606883Y-80273686D01*
X137537191Y-80268702D01*
X137481258Y-80226830D01*
X137456841Y-80161366D01*
X137456525Y-80152520D01*
X137456525Y-80029977D01*
X137424502Y-79827794D01*
X137361243Y-79633105D01*
X137327528Y-79566936D01*
X137268312Y-79450719D01*
X137252991Y-79429631D01*
X137147996Y-79285115D01*
X137003238Y-79140357D01*
X136837638Y-79020044D01*
X136837637Y-79020043D01*
X136837635Y-79020042D01*
X136778700Y-78990013D01*
X136655248Y-78927110D01*
X136460559Y-78863851D01*
X136286020Y-78836207D01*
X136258377Y-78831829D01*
X136053673Y-78831829D01*
X136029354Y-78835680D01*
X135851490Y-78863851D01*
X135656801Y-78927110D01*
X135474411Y-79020044D01*
X135308811Y-79140357D01*
X135164053Y-79285115D01*
X135043740Y-79450715D01*
X134950806Y-79633105D01*
X134887547Y-79827794D01*
X134855525Y-80029977D01*
X134855525Y-80234681D01*
X134861703Y-80273686D01*
X134864343Y-80290355D01*
X134855388Y-80359649D01*
X134829551Y-80397434D01*
X130046958Y-85180026D01*
X129985635Y-85213511D01*
X129915943Y-85208527D01*
X129860010Y-85166655D01*
X129836804Y-85111743D01*
X129836525Y-85109981D01*
X129836525Y-85109977D01*
X129804502Y-84907795D01*
X129741245Y-84713110D01*
X129741243Y-84713107D01*
X129741243Y-84713105D01*
X129707528Y-84646936D01*
X129648312Y-84530719D01*
X129640581Y-84520078D01*
X129527996Y-84365115D01*
X129383238Y-84220357D01*
X129217639Y-84100044D01*
X129211031Y-84096677D01*
X129124942Y-84052812D01*
X129074148Y-84004840D01*
X129057353Y-83937019D01*
X129079890Y-83870884D01*
X129124942Y-83831845D01*
X129217635Y-83784616D01*
X129258612Y-83754845D01*
X129383238Y-83664300D01*
X129383240Y-83664297D01*
X129383244Y-83664295D01*
X129527991Y-83519548D01*
X129527993Y-83519544D01*
X129527996Y-83519542D01*
X129580757Y-83446919D01*
X129648312Y-83353939D01*
X129741245Y-83171548D01*
X129804502Y-82976863D01*
X129836525Y-82774681D01*
X129836525Y-82569977D01*
X129804502Y-82367795D01*
X129803698Y-82365322D01*
X129741243Y-82173105D01*
X129686711Y-82066082D01*
X129648312Y-81990719D01*
X129640042Y-81979336D01*
X129527996Y-81825115D01*
X129383242Y-81680361D01*
X129383237Y-81680357D01*
X129289076Y-81611945D01*
X129246410Y-81556615D01*
X129240431Y-81487002D01*
X129273037Y-81425207D01*
X129322958Y-81393921D01*
X129405142Y-81366688D01*
X129405149Y-81366685D01*
X129554370Y-81274644D01*
X129678340Y-81150674D01*
X129770381Y-81001453D01*
X129770383Y-81001448D01*
X129825530Y-80835026D01*
X129825531Y-80835019D01*
X129836024Y-80732315D01*
X129836025Y-80732302D01*
X129836025Y-80382329D01*
X128851711Y-80382329D01*
X128856105Y-80377935D01*
X128908766Y-80286723D01*
X128936025Y-80184990D01*
X128936025Y-80079668D01*
X128908766Y-79977935D01*
X128856105Y-79886723D01*
X128851711Y-79882329D01*
X129836024Y-79882329D01*
X129836024Y-79532357D01*
X129836023Y-79532342D01*
X129825530Y-79429631D01*
X129770383Y-79263209D01*
X129770381Y-79263204D01*
X129678340Y-79113983D01*
X129554370Y-78990013D01*
X129405149Y-78897972D01*
X129405144Y-78897970D01*
X129238722Y-78842823D01*
X129238715Y-78842822D01*
X129136011Y-78832329D01*
X128786025Y-78832329D01*
X128786025Y-79816643D01*
X128781631Y-79812249D01*
X128690419Y-79759588D01*
X128588686Y-79732329D01*
X128483364Y-79732329D01*
X128381631Y-79759588D01*
X128290419Y-79812249D01*
X128286025Y-79816643D01*
X128286025Y-78832329D01*
X127936053Y-78832329D01*
X127936037Y-78832330D01*
X127833327Y-78842823D01*
X127666905Y-78897970D01*
X127666900Y-78897972D01*
X127517679Y-78990013D01*
X127393709Y-79113983D01*
X127301668Y-79263204D01*
X127301666Y-79263209D01*
X127246519Y-79429631D01*
X127246518Y-79429638D01*
X127236025Y-79532342D01*
X127236025Y-79882329D01*
X128220339Y-79882329D01*
X128215945Y-79886723D01*
X128163284Y-79977935D01*
X128136025Y-80079668D01*
X128136025Y-80184990D01*
X128163284Y-80286723D01*
X128215945Y-80377935D01*
X128220339Y-80382329D01*
X127236026Y-80382329D01*
X127236026Y-80732315D01*
X127246519Y-80835026D01*
X127301666Y-81001448D01*
X127301668Y-81001453D01*
X127393709Y-81150674D01*
X127517679Y-81274644D01*
X127666900Y-81366685D01*
X127666907Y-81366688D01*
X127749092Y-81393921D01*
X127806537Y-81433693D01*
X127833361Y-81498209D01*
X127821046Y-81566985D01*
X127782974Y-81611945D01*
X127688812Y-81680357D01*
X127688807Y-81680361D01*
X127544053Y-81825115D01*
X127423740Y-81990715D01*
X127330806Y-82173105D01*
X127267547Y-82367794D01*
X127235525Y-82569977D01*
X127235525Y-82774680D01*
X127267548Y-82976866D01*
X127267548Y-82976867D01*
X127274475Y-82998187D01*
X127276468Y-83068028D01*
X127244224Y-83124182D01*
X123396218Y-86972188D01*
X123334895Y-87005673D01*
X123270219Y-87002438D01*
X123197395Y-86978776D01*
X122964122Y-86941829D01*
X122964117Y-86941829D01*
X122727933Y-86941829D01*
X122727928Y-86941829D01*
X122494656Y-86978775D01*
X122270028Y-87051762D01*
X122059591Y-87158986D01*
X121950575Y-87238191D01*
X121868515Y-87297812D01*
X121868513Y-87297814D01*
X121868512Y-87297814D01*
X121701510Y-87464816D01*
X121701510Y-87464817D01*
X121701508Y-87464819D01*
X121685232Y-87487221D01*
X121562682Y-87655895D01*
X121455458Y-87866332D01*
X121382471Y-88090960D01*
X121345525Y-88324231D01*
X121345525Y-88560426D01*
X121382471Y-88793697D01*
X121455458Y-89018325D01*
X121562682Y-89228762D01*
X121701508Y-89419839D01*
X121868515Y-89586846D01*
X122059592Y-89725672D01*
X122159016Y-89776331D01*
X122270028Y-89832895D01*
X122270030Y-89832895D01*
X122270033Y-89832897D01*
X122390437Y-89872018D01*
X122494656Y-89905882D01*
X122727928Y-89942829D01*
X122727933Y-89942829D01*
X122964122Y-89942829D01*
X123197393Y-89905882D01*
X123422017Y-89832897D01*
X123632458Y-89725672D01*
X123823535Y-89586846D01*
X123990542Y-89419839D01*
X124129368Y-89228762D01*
X124236593Y-89018321D01*
X124309578Y-88793697D01*
X124317402Y-88744300D01*
X124346525Y-88560426D01*
X124346525Y-88324231D01*
X124326372Y-88196995D01*
X124309578Y-88090961D01*
X124285913Y-88018131D01*
X124283919Y-87948292D01*
X124316162Y-87892136D01*
X127023844Y-85184453D01*
X127085167Y-85150969D01*
X127154859Y-85155953D01*
X127210792Y-85197825D01*
X127235209Y-85263289D01*
X127235525Y-85272135D01*
X127235525Y-85314680D01*
X127267547Y-85516863D01*
X127330806Y-85711552D01*
X127423740Y-85893942D01*
X127544053Y-86059542D01*
X127688811Y-86204300D01*
X127843774Y-86316885D01*
X127854415Y-86324616D01*
X127945865Y-86371212D01*
X127947105Y-86371844D01*
X127997901Y-86419819D01*
X128014696Y-86487640D01*
X127992159Y-86553775D01*
X127947105Y-86592814D01*
X127854411Y-86640044D01*
X127688811Y-86760357D01*
X127544053Y-86905115D01*
X127423740Y-87070715D01*
X127330806Y-87253105D01*
X127267547Y-87447794D01*
X127235525Y-87649977D01*
X127235525Y-87854680D01*
X127244343Y-87910355D01*
X127235388Y-87979649D01*
X127209551Y-88017434D01*
X125071476Y-90155510D01*
X125010153Y-90188995D01*
X124983795Y-90191829D01*
X121708254Y-90191829D01*
X121641215Y-90172144D01*
X121620573Y-90155510D01*
X118132844Y-86667780D01*
X118099359Y-86606457D01*
X118096525Y-86580099D01*
X118096525Y-86186828D01*
X118116210Y-86119789D01*
X118169014Y-86074034D01*
X118220525Y-86062828D01*
X118243896Y-86062828D01*
X118243897Y-86062828D01*
X118303508Y-86056420D01*
X118438356Y-86006125D01*
X118553571Y-85919875D01*
X118639821Y-85804660D01*
X118690116Y-85669812D01*
X118696525Y-85610202D01*
X118696524Y-83814457D01*
X118690116Y-83754846D01*
X118655205Y-83661246D01*
X118639822Y-83620000D01*
X118639818Y-83619993D01*
X118553572Y-83504784D01*
X118553569Y-83504781D01*
X118438360Y-83418535D01*
X118438353Y-83418531D01*
X118303507Y-83368237D01*
X118303508Y-83368237D01*
X118243908Y-83361830D01*
X118243906Y-83361829D01*
X118243898Y-83361829D01*
X118243890Y-83361829D01*
X118233334Y-83361829D01*
X118166295Y-83342144D01*
X118145653Y-83325510D01*
X117475433Y-82655291D01*
X117539018Y-82638254D01*
X117653032Y-82572428D01*
X117746124Y-82479336D01*
X117811950Y-82365322D01*
X117828987Y-82301737D01*
X118461295Y-82934046D01*
X118461295Y-82934045D01*
X118500647Y-82879883D01*
X118597120Y-82690546D01*
X118662782Y-82488459D01*
X118662782Y-82488456D01*
X118696025Y-82278575D01*
X118696025Y-82066082D01*
X118662782Y-81856201D01*
X118662782Y-81856198D01*
X118597120Y-81654111D01*
X118500649Y-81464778D01*
X118461295Y-81410611D01*
X118461294Y-81410611D01*
X117828987Y-82042919D01*
X117811950Y-81979336D01*
X117746124Y-81865322D01*
X117653032Y-81772230D01*
X117539018Y-81706404D01*
X117475434Y-81689366D01*
X118107741Y-81057057D01*
X118053575Y-81017704D01*
X117864242Y-80921233D01*
X117662154Y-80855571D01*
X117452271Y-80822329D01*
X117239779Y-80822329D01*
X117029897Y-80855571D01*
X117029894Y-80855571D01*
X116827807Y-80921233D01*
X116638464Y-81017709D01*
X116584307Y-81057056D01*
X116584307Y-81057057D01*
X117216616Y-81689366D01*
X117153032Y-81706404D01*
X117039018Y-81772230D01*
X116945926Y-81865322D01*
X116880100Y-81979336D01*
X116863062Y-82042920D01*
X116230752Y-81410610D01*
X116230253Y-81410650D01*
X116216643Y-81407790D01*
X116202878Y-81409770D01*
X116183124Y-81400749D01*
X116161876Y-81396285D01*
X116151973Y-81386522D01*
X116139322Y-81380745D01*
X116127581Y-81362476D01*
X116112120Y-81347234D01*
X116108293Y-81332463D01*
X116101548Y-81321967D01*
X116096525Y-81287032D01*
X116096525Y-80954557D01*
X116116210Y-80887518D01*
X116132839Y-80866881D01*
X118675444Y-78324276D01*
X121346025Y-78324276D01*
X121346025Y-78560381D01*
X121382959Y-78793576D01*
X121455922Y-79018131D01*
X121563112Y-79228503D01*
X121623363Y-79311433D01*
X121623365Y-79311434D01*
X122363062Y-78571737D01*
X122380100Y-78635322D01*
X122445926Y-78749336D01*
X122539018Y-78842428D01*
X122653032Y-78908254D01*
X122716615Y-78925291D01*
X121976918Y-79664987D01*
X122059853Y-79725243D01*
X122270222Y-79832431D01*
X122494777Y-79905394D01*
X122494776Y-79905394D01*
X122727973Y-79942329D01*
X122964077Y-79942329D01*
X123197272Y-79905394D01*
X123421827Y-79832431D01*
X123632188Y-79725247D01*
X123632194Y-79725243D01*
X123715129Y-79664987D01*
X123715130Y-79664987D01*
X123667017Y-79616874D01*
X122975433Y-78925291D01*
X123039018Y-78908254D01*
X123153032Y-78842428D01*
X123246124Y-78749336D01*
X123311950Y-78635322D01*
X123328987Y-78571737D01*
X124068683Y-79311434D01*
X124068683Y-79311433D01*
X124128939Y-79228498D01*
X124128943Y-79228492D01*
X124236127Y-79018131D01*
X124309090Y-78793576D01*
X124346025Y-78560381D01*
X124346025Y-78324276D01*
X124309090Y-78091081D01*
X124236127Y-77866526D01*
X124128939Y-77656157D01*
X124068683Y-77573223D01*
X124068683Y-77573222D01*
X123328987Y-78312919D01*
X123311950Y-78249336D01*
X123246124Y-78135322D01*
X123153032Y-78042230D01*
X123039018Y-77976404D01*
X122975434Y-77959366D01*
X123715130Y-77219669D01*
X123715129Y-77219667D01*
X123632199Y-77159416D01*
X123421827Y-77052226D01*
X123197272Y-76979263D01*
X123197273Y-76979263D01*
X122964077Y-76942329D01*
X122727973Y-76942329D01*
X122494777Y-76979263D01*
X122270222Y-77052226D01*
X122059855Y-77159413D01*
X121976919Y-77219669D01*
X122716616Y-77959366D01*
X122653032Y-77976404D01*
X122539018Y-78042230D01*
X122445926Y-78135322D01*
X122380100Y-78249336D01*
X122363062Y-78312920D01*
X121623365Y-77573223D01*
X121563109Y-77656159D01*
X121455922Y-77866526D01*
X121382959Y-78091081D01*
X121346025Y-78324276D01*
X118675444Y-78324276D01*
X121730919Y-75268800D01*
X121792240Y-75235317D01*
X121837995Y-75234010D01*
X121893673Y-75242829D01*
X121893674Y-75242829D01*
X122098376Y-75242829D01*
X122098377Y-75242829D01*
X122300559Y-75210806D01*
X122495244Y-75147549D01*
X122677635Y-75054616D01*
X122770615Y-74987061D01*
X122843238Y-74934300D01*
X122843240Y-74934297D01*
X122843244Y-74934295D01*
X122987991Y-74789548D01*
X122987993Y-74789544D01*
X122987996Y-74789542D01*
X123049319Y-74705137D01*
X123108312Y-74623939D01*
X123201245Y-74441548D01*
X123264502Y-74246863D01*
X123296525Y-74044681D01*
X123296525Y-73839977D01*
X123264502Y-73637795D01*
X123201245Y-73443110D01*
X123201243Y-73443107D01*
X123201243Y-73443105D01*
X123136901Y-73316828D01*
X123108312Y-73260719D01*
X123093778Y-73240714D01*
X122987996Y-73095115D01*
X122843238Y-72950357D01*
X122677638Y-72830044D01*
X122677637Y-72830043D01*
X122677635Y-72830042D01*
X122620678Y-72801020D01*
X122495248Y-72737110D01*
X122300559Y-72673851D01*
X122126020Y-72646207D01*
X122098377Y-72641829D01*
X121893673Y-72641829D01*
X121869354Y-72645680D01*
X121691490Y-72673851D01*
X121496801Y-72737110D01*
X121314411Y-72830044D01*
X121148811Y-72950357D01*
X121004053Y-73095115D01*
X120883740Y-73260715D01*
X120790806Y-73443105D01*
X120727547Y-73637794D01*
X120695525Y-73839977D01*
X120695525Y-74044680D01*
X120704343Y-74100355D01*
X120695388Y-74169649D01*
X120669551Y-74207434D01*
X114763075Y-80113909D01*
X114763069Y-80113917D01*
X114713837Y-80187597D01*
X114713838Y-80187598D01*
X114680946Y-80236825D01*
X114680939Y-80236837D01*
X114624367Y-80373415D01*
X114624365Y-80373421D01*
X114595525Y-80518408D01*
X114595525Y-80518411D01*
X114595525Y-83516247D01*
X114595525Y-83516249D01*
X114595524Y-83516249D01*
X114000500Y-83516249D01*
X114000500Y-71374500D01*
X114020185Y-71307461D01*
X114072989Y-71261706D01*
X114124500Y-71250500D01*
X142875500Y-71250500D01*
X142942539Y-71270185D01*
G37*
%TD.AperFunction*%
%TD*%
M02*
